<?xml version="1.0" encoding="UTF-8" standalone="no" ?>
<!DOCTYPE svg PUBLIC "-//W3C//DTD SVG 1.1//EN" "http://www.w3.org/Graphics/SVG/1.1/DTD/svg11.dtd">
<svg xmlns="http://www.w3.org/2000/svg" xmlns:xlink="http://www.w3.org/1999/xlink" version="1.1" width="800" height="800" viewBox="250 50 800 800" xml:space="preserve">
<desc>Created with Fabric.js 4.2.0</desc>
<defs>
</defs>
<rect x="0" y="0" width="100%" height="100%" fill="transparent"></rect>
<g transform="matrix(0 0 0 0 0 0)" id="c48f3e2b-1518-4106-a314-e6c49b200c2a"  >
</g>
<g transform="matrix(1 0 0 1 540 540)" id="300e2202-a522-4124-b8e2-c3bafebc0076"  >
<rect style="stroke: none; strokeWidth: 1; strokeDasharray: none; strokeLinecap:butt; strokeDashoffset: 0; strokeLinejoin:miter; strokeMiterlimit: 4; fill: rgb(255,255,255); fill-opacity: 0; fillRule:nonzero; opacity: 1;" vectorEffect="non-scaling-stroke"  x="-540" y="-540" rx="0" ry="0" width="1080" height="1080" />
</g>
<g transform="matrix(5.44 0 0 9.58 539.97 539.99)" id="c8df7ca4-a13f-4e25-a475-8e1073cdee52"  >
<rect style="stroke: rgb(0,0,0); strokeWidth: 0; strokeDasharray: none; strokeLinecap:butt; strokeDashoffset: 0; strokeLinejoin:miter; strokeMiterlimit: 4; fill: rgb(204,190,177); fillRule:nonzero; opacity: 0.91;" vectorEffect="non-scaling-stroke"  x="-33.085" y="-33.085" rx="8" ry="3" width="66.17" height="66.17" />
</g>
<g transform="matrix(4.21 0 0 8.8 540 540)" id="1bfb7af7-c23b-41e9-8996-67085654ee9c"  >
<rect style="stroke: rgb(0,0,0); strokeWidth: 0; strokeDasharray: none; strokeLinecap:butt; strokeDashoffset: 0; strokeLinejoin:miter; strokeMiterlimit: 4; fill: rgb(54,54,54); fillRule:nonzero; opacity: 1;" vectorEffect="non-scaling-stroke"  x="-33.085" y="-33.085" rx="0" ry="0" width="66.17" height="66.17" />
</g>
<g transform="matrix(-0.4 0 0 2.72 408.03 539.96)" id="b4ce49c2-3a4b-4108-9ce5-4e442ce29fba"  >
<rect style="stroke: rgb(0,0,0); strokeWidth: 0; strokeDasharray: none; strokeLinecap:butt; strokeDashoffset: 0; strokeLinejoin:miter; strokeMiterlimit: 4; fill: rgb(209 196 184); fillRule:nonzero; opacity: 1;" vectorEffect="non-scaling-stroke"  x="-33.085" y="-33.085" rx="8" ry="3" width="66.17" height="66.17" />
</g>
<g transform="matrix(-0.51 0 0 2.72 602.66 540)" id="b4ce49c2-3a4b-4108-9ce5-4e442ce29fba"  >
<rect style="stroke: rgb(0,0,0); strokeWidth: 0; strokeDasharray: none; strokeLinecap:butt; strokeDashoffset: 0; strokeLinejoin:miter; strokeMiterlimit: 4; fill: rgb(204,190,177); fillRule:nonzero; opacity: 1;" vectorEffect="non-scaling-stroke"  x="-33.085" y="-33.085" rx="8" ry="3" width="66.17" height="66.17" />
</g>
<g transform="matrix(-0.51 0 0 2.72 557.16 540)" id="b4ce49c2-3a4b-4108-9ce5-4e442ce29fba"  >
<rect style="stroke: rgb(0,0,0); strokeWidth: 0; strokeDasharray: none; strokeLinecap:butt; strokeDashoffset: 0; strokeLinejoin:miter; strokeMiterlimit: 4; fill: rgb(204,190,177); fillRule:nonzero; opacity: 1;" vectorEffect="non-scaling-stroke"  x="-33.085" y="-33.085" rx="8" ry="3" width="66.17" height="66.17" />
</g>
<g transform="matrix(-0.51 0 0 2.72 511.07 540)" id="b4ce49c2-3a4b-4108-9ce5-4e442ce29fba"  >
<rect style="stroke: rgb(0,0,0); strokeWidth: 0; strokeDasharray: none; strokeLinecap:butt; strokeDashoffset: 0; strokeLinejoin:miter; strokeMiterlimit: 4; fill: rgb(204,190,177); fillRule:nonzero; opacity: 1;" vectorEffect="non-scaling-stroke"  x="-33.085" y="-33.085" rx="8" ry="3" width="66.17" height="66.17" />
</g>
<g transform="matrix(-0.69 0 0 2.72 460.26 539.88)" id="b4ce49c2-3a4b-4108-9ce5-4e442ce29fba"  >
<rect style="stroke: rgb(0,0,0); strokeWidth: 0; strokeDasharray: none; strokeLinecap:butt; strokeDashoffset: 0; strokeLinejoin:miter; strokeMiterlimit: 4; fill: rgb(229,219,209); fillRule:nonzero; opacity: 1;" vectorEffect="non-scaling-stroke"  x="-33.085" y="-33.085" rx="8" ry="3" width="66.17" height="66.17" />
</g>
<g transform="matrix(-0.88 0 0 0.95 475.68 688.98)" id="b4ce49c2-3a4b-4108-9ce5-4e442ce29fba"  >
<rect style="stroke: rgb(0,0,0); strokeWidth: 0; strokeDasharray: none; strokeLinecap:butt; strokeDashoffset: 0; strokeLinejoin:miter; strokeMiterlimit: 4; fill: rgb(229,219,209); fillRule:nonzero; opacity: 1;" vectorEffect="non-scaling-stroke"  x="-33.085" y="-33.085" rx="8" ry="3" width="66.17" height="66.17" />
</g>
<g transform="matrix(-0.88 0 0 0.95 475.85 768.16)" id="b4ce49c2-3a4b-4108-9ce5-4e442ce29fba"  >
<rect style="stroke: rgb(0,0,0); strokeWidth: 0; strokeDasharray: none; strokeLinecap:butt; strokeDashoffset: 0; strokeLinejoin:miter; strokeMiterlimit: 4; fill: rgb(229,219,209); fillRule:nonzero; opacity: 1;" vectorEffect="non-scaling-stroke"  x="-33.085" y="-33.085" rx="8" ry="3" width="66.17" height="66.17" />
</g>
<g transform="matrix(0.75 0 0 0.75 476.04 688.41)" id="a1dd771c-6dd6-42e5-be78-47cdad1e896b"  >
<circle style="stroke: rgb(0,0,0); strokeWidth: 0; strokeDasharray: none; strokeLinecap:butt; strokeDashoffset: 0; strokeLinejoin:miter; strokeMiterlimit: 4; fill: rgb(196,69,69); fillRule:nonzero; opacity: 1;" vectorEffect="non-scaling-stroke"  cx="0" cy="0" r="35" />
</g>
<g transform="matrix(0.75 0 0 0.75 476.14 767.74)" id="a1dd771c-6dd6-42e5-be78-47cdad1e896b"  >
<circle style="stroke: rgb(0,0,0); strokeWidth: 0; strokeDasharray: none; strokeLinecap:butt; strokeDashoffset: 0; strokeLinejoin:miter; strokeMiterlimit: 4; fill: rgb(196,69,69); fillRule:nonzero; opacity: 1;" vectorEffect="non-scaling-stroke"  cx="0" cy="0" r="35" />
</g>
<g transform="matrix(-0.46 0 0 2.52 459.43 540)" id="b4ce49c2-3a4b-4108-9ce5-4e442ce29fba"  >
<rect style="stroke: rgb(168,168,168); strokeWidth: 1; strokeDasharray: none; strokeLinecap:butt; strokeDashoffset: 0; strokeLinejoin:miter; strokeMiterlimit: 4; fill: rgb(204,190,177); fillRule:nonzero; opacity: 1;" vectorEffect="non-scaling-stroke"  x="-33.085" y="-33.085" rx="5" ry="5" width="66.17" height="66.17" />
</g>
<g transform="matrix(0.25 0 0 0.53 460.16 515.19)" id="d3784ada-745c-4eaf-b529-1373ee92f942"  >
<rect style="stroke: rgb(255,255,255); strokeWidth: 1; strokeDasharray: none; strokeLinecap:butt; strokeDashoffset: 0; strokeLinejoin:miter; strokeMiterlimit: 4; fill: rgb(57,57,57); fillRule:nonzero; opacity: 1;" vectorEffect="non-scaling-stroke"  x="-33.085" y="-33.085" rx="20" ry="20" width="66.17" height="66.17" />
</g>

<g transform="matrix(0.25 0 0 0.53 460.25 568.77)" id="d3784ada-745c-4eaf-b529-1373ee92f942"  >
<rect style="stroke: rgb(255,255,255); strokeWidth: 1; strokeDasharray: none; strokeLinecap:butt; strokeDashoffset: 0; strokeLinejoin:miter; strokeMiterlimit: 4; fill: rgb(57,57,57); fillRule:nonzero; opacity: 1;" vectorEffect="non-scaling-stroke"  x="-33.085" y="-33.085" rx="20" ry="20" width="66.17" height="66.17" />
</g>
<g transform="matrix(0 0.39 -0.39 0 510.85 499.54)" style="" id="116c4fef-472c-4d18-898d-643b26a19495"  >
		<text xml:space="preserve" fontFamily="Lato" font-size="44" font-style="normal" fontWeight="700" style="stroke: none; strokeWidth: 1; strokeDasharray: none; strokeLinecap:butt; strokeDashoffset: 0; strokeLinejoin:miter; strokeMiterlimit: 4; fill: rgb(196,69,69); fillRule:nonzero; opacity: 1; white-space: pre;" ><tspan x="-58.1" y="13.82" >select</tspan></text>
</g>
<g transform="matrix(0 0.39 -0.39 0 426.6 709.74)" style=""  >
		<text xml:space="preserve" fontFamily="Lato" font-size="54" font-style="normal" fontWeight="700" style="stroke: none; strokeWidth: 1; strokeDasharray: none; strokeLinecap:butt; strokeDashoffset: 0; strokeLinejoin:miter; strokeMiterlimit: 4; fill: rgb(196,69,69); fillRule:nonzero; opacity: 1; white-space: pre;" ><tspan x="-18.01" y="16.96" >B</tspan></text>
</g>
<g transform="matrix(0 0.39 -0.39 0 427.62 789.34)" style=""  >
		<text xml:space="preserve" fontFamily="Lato" font-size="54" font-style="normal" fontWeight="700" style="stroke: none; strokeWidth: 1; strokeDasharray: none; strokeLinecap:butt; strokeDashoffset: 0; strokeLinejoin:miter; strokeMiterlimit: 4; fill: rgb(196,69,69); fillRule:nonzero; opacity: 1; white-space: pre;" ><tspan x="-19.17" y="16.96" >A</tspan></text>
</g>
<g transform="matrix(0 0.39 -0.39 0 511.87 584.75)" style=""  >
		<text xml:space="preserve" fontFamily="Lato" font-size="44" font-style="normal" fontWeight="700" style="stroke: none; strokeWidth: 1; strokeDasharray: none; strokeLinecap:butt; strokeDashoffset: 0; strokeLinejoin:miter; strokeMiterlimit: 4; fill: rgb(196,69,69); fillRule:nonzero; opacity: 1; white-space: pre;" ><tspan x="-47.15" y="13.82" >start</tspan></text>
</g>
<g transform="matrix(0.55 0 0 0.65 545.87 348.72)" id="1277504a-6be3-4aff-b1ff-100e612d3201"  >
<rect style="stroke: rgb(255,255,255); strokeWidth: 2; strokeDasharray: none; strokeLinecap:butt; strokeDashoffset: 0; strokeLinejoin:miter; strokeMiterlimit: 4; fill: rgb(57,57,57); fillRule:nonzero; opacity: 1;" vectorEffect="non-scaling-stroke"  x="-33.085" y="-33.085" rx="0" ry="0" width="66.17" height="66.17" />
</g>
<g transform="matrix(0.59 0 0 0.58 508.05 307.33)" id="1277504a-6be3-4aff-b1ff-100e612d3201"  >
<rect style="stroke: rgb(255,255,255); strokeWidth: 2; strokeDasharray: none; strokeLinecap:butt; strokeDashoffset: 0; strokeLinejoin:miter; strokeMiterlimit: 4; fill: rgb(57,57,57); fillRule:nonzero; opacity: 1;" vectorEffect="non-scaling-stroke"  x="-33.085" y="-33.085" rx="0" ry="0" width="66.17" height="66.17" />
</g>
<g transform="matrix(0.55 0 0 0.65 470.8 348.56)" id="1277504a-6be3-4aff-b1ff-100e612d3201"  >
<rect style="stroke: rgb(255,255,255); strokeWidth: 2; strokeDasharray: none; strokeLinecap:butt; strokeDashoffset: 0; strokeLinejoin:miter; strokeMiterlimit: 4; fill: rgb(57,57,57); fillRule:nonzero; opacity: 1;" vectorEffect="non-scaling-stroke"  x="-33.085" y="-33.085" rx="0" ry="0" width="66.17" height="66.17" />
</g>
<g transform="matrix(0.59 0 0 0.58 508.05 389.24)" id="1277504a-6be3-4aff-b1ff-100e612d3201"  >
<rect style="stroke: rgb(255,255,255); strokeWidth: 2; strokeDasharray: none; strokeLinecap:butt; strokeDashoffset: 0; strokeLinejoin:miter; strokeMiterlimit: 4; fill: rgb(57,57,57); fillRule:nonzero; opacity: 1;" vectorEffect="non-scaling-stroke"  x="-33.085" y="-33.085" rx="0" ry="0" width="66.17" height="66.17" />
</g>
<g transform="matrix(0.6 0 0 0.7 508.24 348.21)" id="1277504a-6be3-4aff-b1ff-100e612d3201"  >
<rect style="stroke: rgb(57,57,57); strokeWidth: 4; strokeDasharray: none; strokeLinecap:butt; strokeDashoffset: 0; strokeLinejoin:miter; strokeMiterlimit: 4; fill: rgb(57,57,57); fillRule:nonzero; opacity: 1;" vectorEffect="non-scaling-stroke"  x="-33.085" y="-33.085" rx="0" ry="0" width="66.17" height="66.17" />
</g>
</svg>