<svg width="800" height="800" xmlns="http://www.w3.org/2000/svg" xml:space="preserve" version="1.1" viewBox="200 50 800 800">
 <desc>Created with Fabric.js 4.2.0</desc>

 <g>
  <title>Layer 1</title>
  <g id="c48f3e2b-1518-4106-a314-e6c49b200c2a" transform="matrix(0 0 0 0 0 0)"/>
  <g id="c8df7ca4-a13f-4e25-a475-8e1073cdee52" transform="matrix(5.44 0 0 9.58 539.97 539.99)">
   <rect id="svg_3" opacity="0.91" fillRule="nonzero" fill=" rgb(204,190,177)" strokeMiterlimit="4" strokeLinejoin="miter" strokeDashoffset="0" strokeLinecap="butt" strokeDasharray=" none" strokeWidth="0" stroke=" rgb(0,0,0)" height="66.17" width="66.17" ry="3" rx="8" y="-33.085" x="-33.085" vectorEffect="non-scaling-stroke"/>
  </g>
  <g id="1bfb7af7-c23b-41e9-8996-67085654ee9c" transform="matrix(4.21 0 0 8.8 540 540)">
   <rect id="svg_4" fillRule="nonzero" fill=" rgb(54,54,54)" strokeMiterlimit="4" strokeLinejoin="miter" strokeDashoffset="0" strokeLinecap="butt" strokeDasharray=" none" strokeWidth="0" stroke=" rgb(0,0,0)" height="66.17" width="66.17" y="-33.085" x="-33.085" vectorEffect="non-scaling-stroke"/>
  </g>
  <g id="b4ce49c2-3a4b-4108-9ce5-4e442ce29fba" transform="matrix(-0.4 0 0 2.72 408.03 539.96)">
   <rect id="svg_5" fillRule="nonzero" fill=" rgb(209 196 184)" strokeMiterlimit="4" strokeLinejoin="miter" strokeDashoffset="0" strokeLinecap="butt" strokeDasharray=" none" strokeWidth="0" stroke=" rgb(0,0,0)" height="66.17" width="66.17" ry="3" rx="8" y="-33.085" x="-33.085" vectorEffect="non-scaling-stroke"/>
  </g>
  <g id="b4ce49c2-3a4b-4108-9ce5-4e442ce29fba" transform="matrix(-0.51 0 0 2.72 602.66 540)">
   <rect id="svg_6" fillRule="nonzero" fill=" rgb(204,190,177)" strokeMiterlimit="4" strokeLinejoin="miter" strokeDashoffset="0" strokeLinecap="butt" strokeDasharray=" none" strokeWidth="0" stroke=" rgb(0,0,0)" height="66.17" width="66.17" ry="3" rx="8" y="-33.085" x="-33.085" vectorEffect="non-scaling-stroke"/>
  </g>
  <g id="b4ce49c2-3a4b-4108-9ce5-4e442ce29fba" transform="matrix(-0.51 0 0 2.72 557.16 540)">
   <rect id="svg_7" fillRule="nonzero" fill=" rgb(204,190,177)" strokeMiterlimit="4" strokeLinejoin="miter" strokeDashoffset="0" strokeLinecap="butt" strokeDasharray=" none" strokeWidth="0" stroke=" rgb(0,0,0)" height="66.17" width="66.17" ry="3" rx="8" y="-33.085" x="-33.085" vectorEffect="non-scaling-stroke"/>
  </g>
  <g id="b4ce49c2-3a4b-4108-9ce5-4e442ce29fba" transform="matrix(-0.51 0 0 2.72 511.07 540)">
   <rect id="svg_8" fillRule="nonzero" fill=" rgb(204,190,177)" strokeMiterlimit="4" strokeLinejoin="miter" strokeDashoffset="0" strokeLinecap="butt" strokeDasharray=" none" strokeWidth="0" stroke=" rgb(0,0,0)" height="66.17" width="66.17" ry="3" rx="8" y="-33.085" x="-33.085" vectorEffect="non-scaling-stroke"/>
  </g>
  <g id="b4ce49c2-3a4b-4108-9ce5-4e442ce29fba" transform="matrix(-0.69 0 0 2.72 460.26 539.88)">
   <rect id="svg_9" fillRule="nonzero" fill=" rgb(229,219,209)" strokeMiterlimit="4" strokeLinejoin="miter" strokeDashoffset="0" strokeLinecap="butt" strokeDasharray=" none" strokeWidth="0" stroke=" rgb(0,0,0)" height="66.17" width="66.17" ry="3" rx="8" y="-33.085" x="-33.085" vectorEffect="non-scaling-stroke"/>
  </g>
  <g id="b4ce49c2-3a4b-4108-9ce5-4e442ce29fba" transform="matrix(-0.88 0 0 0.95 475.68 688.98)">
   <rect id="svg_10" fillRule="nonzero" fill=" rgb(229,219,209)" strokeMiterlimit="4" strokeLinejoin="miter" strokeDashoffset="0" strokeLinecap="butt" strokeDasharray=" none" strokeWidth="0" stroke=" rgb(0,0,0)" height="66.17" width="66.17" ry="3" rx="8" y="-33.085" x="-33.085" vectorEffect="non-scaling-stroke"/>
  </g>
  <g id="b4ce49c2-3a4b-4108-9ce5-4e442ce29fba" transform="matrix(-0.88 0 0 0.95 475.85 768.16)">
   <rect id="svg_11" fillRule="nonzero" fill=" rgb(229,219,209)" strokeMiterlimit="4" strokeLinejoin="miter" strokeDashoffset="0" strokeLinecap="butt" strokeDasharray=" none" strokeWidth="0" stroke=" rgb(0,0,0)" height="66.17" width="66.17" ry="3" rx="8" y="-33.085" x="-33.085" vectorEffect="non-scaling-stroke"/>
  </g>
  <g id="a1dd771c-6dd6-42e5-be78-47cdad1e896b" transform="matrix(0.75 0 0 0.75 476.04 688.41)">
   <circle id="svg_12" fillRule="nonzero" fill=" rgb(196,69,69)" strokeMiterlimit="4" strokeLinejoin="miter" strokeDashoffset="0" strokeLinecap="butt" strokeDasharray=" none" strokeWidth="0" stroke=" rgb(0,0,0)" r="35" cy="0" cx="0" vectorEffect="non-scaling-stroke"/>
  </g>
  <g id="a1dd771c-6dd6-42e5-be78-47cdad1e896b" transform="matrix(0.75 0 0 0.75 476.14 767.74)">
   <circle id="svg_13" fillRule="nonzero" fill=" rgb(196,69,69)" strokeMiterlimit="4" strokeLinejoin="miter" strokeDashoffset="0" strokeLinecap="butt" strokeDasharray=" none" strokeWidth="0" stroke=" rgb(0,0,0)" r="35" cy="0" cx="0" vectorEffect="non-scaling-stroke"/>
  </g>
  <g id="b4ce49c2-3a4b-4108-9ce5-4e442ce29fba" transform="matrix(-0.46 0 0 2.52 459.43 540)">
   <rect id="svg_14" fillRule="nonzero" fill=" rgb(204,190,177)" strokeMiterlimit="4" strokeLinejoin="miter" strokeDashoffset="0" strokeLinecap="butt" strokeDasharray=" none" stroke=" rgb(168,168,168)" height="66.17" width="66.17" ry="5" rx="5" y="-33.085" x="-33.085" vectorEffect="non-scaling-stroke"/>
  </g>
  <g id="d3784ada-745c-4eaf-b529-1373ee92f942" transform="matrix(0.25 0 0 0.53 460.16 515.19)">
   <rect id="svg_15" fillRule="nonzero" fill=" rgb(57,57,57)" strokeMiterlimit="4" strokeLinejoin="miter" strokeDashoffset="0" strokeLinecap="butt" strokeDasharray=" none" stroke=" rgb(255,255,255)" height="66.17" width="66.17" ry="20" rx="20" y="-33.085" x="-33.085" vectorEffect="non-scaling-stroke"/>
  </g>
  <g id="d3784ada-745c-4eaf-b529-1373ee92f942" transform="matrix(0.25 0 0 0.53 460.25 568.77)">
   <rect id="svg_16" fillRule="nonzero" fill=" rgb(57,57,57)" strokeMiterlimit="4" strokeLinejoin="miter" strokeDashoffset="0" strokeLinecap="butt" strokeDasharray=" none" stroke=" rgb(255,255,255)" height="66.17" width="66.17" ry="20" rx="20" y="-33.085" x="-33.085" vectorEffect="non-scaling-stroke"/>
  </g>
  <g id="116c4fef-472c-4d18-898d-643b26a19495" transform="matrix(0 0.39 -0.39 0 510.85 499.54)">
   <text id="svg_17" fillRule="nonzero" fill=" rgb(196,69,69)" strokeMiterlimit="4" strokeLinejoin="miter" strokeDashoffset="0" strokeLinecap="butt" strokeDasharray=" none" stroke=" none" fontWeight="700" font-style="normal" font-size="44" fontFamily="Lato" xml:space="preserve">
    <tspan id="svg_18" y="13.82" x="-58.1">select</tspan>
   </text>
  </g>
  <g id="svg_19" transform="matrix(0 0.39 -0.39 0 426.6 709.74)">
   <text id="svg_20" fillRule="nonzero" fill=" rgb(196,69,69)" strokeMiterlimit="4" strokeLinejoin="miter" strokeDashoffset="0" strokeLinecap="butt" strokeDasharray=" none" stroke=" none" fontWeight="700" font-style="normal" font-size="54" fontFamily="Lato" xml:space="preserve">
    <tspan id="svg_21" y="16.96" x="-18.01">B</tspan>
   </text>
  </g>
  <g id="svg_22" transform="matrix(0 0.39 -0.39 0 427.62 789.34)">
   <text id="svg_23" fillRule="nonzero" fill=" rgb(196,69,69)" strokeMiterlimit="4" strokeLinejoin="miter" strokeDashoffset="0" strokeLinecap="butt" strokeDasharray=" none" stroke=" none" fontWeight="700" font-style="normal" font-size="54" fontFamily="Lato" xml:space="preserve">
    <tspan id="svg_24" y="16.96" x="-19.17">A</tspan>
   </text>
  </g>
  <g id="svg_25" transform="matrix(0 0.39 -0.39 0 511.87 584.75)">
   <text id="svg_26" fillRule="nonzero" fill=" rgb(196,69,69)" strokeMiterlimit="4" strokeLinejoin="miter" strokeDashoffset="0" strokeLinecap="butt" strokeDasharray=" none" stroke=" none" fontWeight="700" font-style="normal" font-size="44" fontFamily="Lato" xml:space="preserve">
    <tspan id="svg_27" y="13.82" x="-47.15">start</tspan>
   </text>
  </g>
  <g id="1277504a-6be3-4aff-b1ff-100e612d3201" transform="matrix(0.55 0 0 0.65 545.87 348.72)">
   <rect id="svg_28" fillRule="nonzero" fill=" rgb(57,57,57)" strokeMiterlimit="4" strokeLinejoin="miter" strokeDashoffset="0" strokeLinecap="butt" strokeDasharray=" none" strokeWidth="2" stroke=" rgb(255,255,255)" height="66.17" width="66.17" y="-33.085" x="-33.085" vectorEffect="non-scaling-stroke"/>
  </g>
  <g id="1277504a-6be3-4aff-b1ff-100e612d3201" transform="matrix(0.59 0 0 0.58 508.05 307.33)">
   <rect id="svg_29" fillRule="nonzero" fill=" rgb(57,57,57)" strokeMiterlimit="4" strokeLinejoin="miter" strokeDashoffset="0" strokeLinecap="butt" strokeDasharray=" none" strokeWidth="2" stroke=" rgb(255,255,255)" height="66.17" width="66.17" y="-33.085" x="-33.085" vectorEffect="non-scaling-stroke"/>
  </g>
  <g id="1277504a-6be3-4aff-b1ff-100e612d3201" transform="matrix(0.55 0 0 0.65 470.8 348.56)">
   <rect id="svg_30" fillRule="nonzero" fill=" rgb(57,57,57)" strokeMiterlimit="4" strokeLinejoin="miter" strokeDashoffset="0" strokeLinecap="butt" strokeDasharray=" none" strokeWidth="2" stroke=" rgb(255,255,255)" height="66.17" width="66.17" y="-33.085" x="-33.085" vectorEffect="non-scaling-stroke"/>
  </g>
  <g id="1277504a-6be3-4aff-b1ff-100e612d3201" transform="matrix(0.59 0 0 0.58 508.05 389.24)">
   <rect id="svg_31" fillRule="nonzero" fill=" rgb(57,57,57)" strokeMiterlimit="4" strokeLinejoin="miter" strokeDashoffset="0" strokeLinecap="butt" strokeDasharray=" none" strokeWidth="2" stroke=" rgb(255,255,255)" height="66.17" width="66.17" y="-33.085" x="-33.085" vectorEffect="non-scaling-stroke"/>
  </g>
  <g id="1277504a-6be3-4aff-b1ff-100e612d3201" transform="matrix(0.6 0 0 0.7 508.24 348.21)">
   <rect id="svg_32" fillRule="nonzero" fill=" rgb(57,57,57)" strokeMiterlimit="4" strokeLinejoin="miter" strokeDashoffset="0" strokeLinecap="butt" strokeDasharray=" none" strokeWidth="4" stroke=" rgb(57,57,57)" height="66.17" width="66.17" y="-33.085" x="-33.085" vectorEffect="non-scaling-stroke"/>
  </g>
  <path id="svg_34" d="m300,193" opacity="undefined" strokeLinecap="undefined" strokeLinejoin="undefined" stroke="#000" fill="none"/>
  <path id="svg_36" d="m103,248" opacity="NaN" stroke="#000" fill="none"/>
  <path stroke="rgb(54, 54, 54)" strokeDasharray="2,2" strokeWidth="15" id="svg_38" d="m8,183.20928c172.6736,1 52.9,173 147.72076,76c94.82076,-97 69.86793,5 80.84718,45c10.97925,40 -10.97925,280 -13.97359,350c-2.99434,70 63.87925,56 70.86604,4c6.98679,-52 -82.8434,-480 57.89057,-510c140.73397,-30 186.64718,9.66672 185.64907,37.66672" opacity="NaN" fill="none"/>
  <rect stroke="#000" id="svg_39" height="5" width="24" y="214.54261" x="526" strokeWidth="3" fill="none"/>
  <rect stroke="#000" id="svg_40" height="5.66666" width="24" y="215.20927" x="526" strokeWidth="3" fill="none"/>
  <g id="svg_44">
   <rect stroke="#000" id="svg_41" height="2" width="14" y="210.87593" x="531.66666" strokeWidth="3" fill="none"/>
   <rect stroke="#000" id="svg_43" height="2.66666" width="10" y="206.20928" x="533.66666" strokeWidth="3" fill="none"/>
  </g>
  <g id="svg_47">
   <rect stroke="#000" id="svg_45" height="2" width="14" y="204.20928" x="531.66666" strokeWidth="3" fill="none"/>
   <rect stroke="#000" id="svg_46" height="2.66666" width="10" y="199.54263" x="533.66666" strokeWidth="3" fill="none"/>
  </g>
  <g id="svg_50">
   <rect stroke="#000" id="svg_48" height="2" width="14" y="197.87596" x="531.33333" strokeWidth="3" fill="none"/>
   <rect stroke="#000" id="svg_49" height="2.66666" width="10" y="193.2093" x="533.33332" strokeWidth="3" fill="none"/>
  </g>
  <g id="svg_53">
   <rect stroke="#000" id="svg_51" height="2" width="14" y="191.87597" x="530.66667" strokeWidth="3" fill="none"/>
   <rect stroke="#000" id="svg_52" height="2.66666" width="10" y="187.20932" x="532.66666" strokeWidth="3" fill="none"/>
  </g>
 </g>
</svg>