<?xml version="1.0" encoding="iso-8859-1"?>
<!-- Generator: Adobe Illustrator 19.0.0, SVG Export Plug-In . SVG Version: 6.00 Build 0)  -->
<svg version="1.1" id="Layer_1" xmlns="http://www.w3.org/2000/svg" xmlns:xlink="http://www.w3.org/1999/xlink" x="0px" y="0px"
	 viewBox="0 0 498.4 498.4" style="enable-background:new 0 0 498.4 498.4;" xml:space="preserve">
<rect x="166.8" y="404" style="fill:#E88813;" width="165.6" height="18.4"/>
<path style="fill:#07BED6;" d="M401.2,498.4v-9.6c0-36-31.2-62.4-67.2-62.4H164.4c-36,0-67.2,26.4-67.2,62.4v9.6H401.2z"/>
<path style="fill:#049CBF;" d="M401.2,498.4v-9.6c0-36-31.2-62.4-67.2-62.4H161.2"/>
<ellipse style="fill:#E88813;" cx="249.2" cy="422.4" rx="82.4" ry="16"/>
<ellipse style="fill:#F9B843;" cx="249.2" cy="404" rx="82.4" ry="16"/>
<rect x="225.2" y="178.4" style="fill:#4C5254;" width="48" height="224"/>
<polyline style="fill:#202D2A;" points="225.2,178.4 273.2,178.4 273.2,402.4 "/>
<circle style="fill:#EA1F0A;" cx="249.2" cy="81.6" r="81.6"/>
<ellipse transform="matrix(-0.7071 -0.7071 0.7071 -0.7071 336.1199 211.6109)" style="fill:#EF683F;" cx="211.886" cy="36.193" rx="13.6" ry="29.6"/>
<path style="fill:#AA2011;" d="M306.8,24c32,32,32,83.2,0,115.2s-83.2,32-115.2,0"/>
<path style="fill:#F9B843;" d="M305.2,170.4c0,8.8-7.2,16-16,16h-80c-8.8,0-16-7.2-16-16l0,0c0-8.8,7.2-16,16-16h80
	C298,154.4,305.2,161.6,305.2,170.4L305.2,170.4z"/>
<path style="fill:#E88813;" d="M305.2,170.4L305.2,170.4c0,9.6-6.4,16-16,16h-80c-9.6,0-16-6.4-16-16l0,0"/>
<path style="fill:#4C5254;" d="M273.2,401.6c0,3.2-10.4,6.4-24,6.4c-13.6,0-24-2.4-24-6.4s10.4-6.4,24-6.4
	C262.8,395.2,273.2,398.4,273.2,401.6z"/>
<g>
</g>
<g>
</g>
<g>
</g>
<g>
</g>
<g>
</g>
<g>
</g>
<g>
</g>
<g>
</g>
<g>
</g>
<g>
</g>
<g>
</g>
<g>
</g>
<g>
</g>
<g>
</g>
<g>
</g>
</svg>
