<?xml version="1.0" encoding="iso-8859-1"?>
<!-- Generator: Adobe Illustrator 19.0.0, SVG Export Plug-In . SVG Version: 6.00 Build 0)  -->
<svg version="1.1" id="Layer_1" xmlns="http://www.w3.org/2000/svg" xmlns:xlink="http://www.w3.org/1999/xlink" x="0px" y="0px"
	 viewBox="0 0 503.467 503.467" style="enable-background:new 0 0 503.467 503.467;" xml:space="preserve">
<g transform="translate(1 1)">
	<path style="fill:#AAB1BA;" d="M498.2,412.867v51.2c0,18.773-15.36,34.133-34.133,34.133H37.4
		c-18.773,0-34.133-15.36-34.133-34.133v-51.2c0-9.387,7.68-17.067,17.067-17.067h34.133H344.6h51.2H447h34.133
		C490.52,395.8,498.2,403.48,498.2,412.867L498.2,412.867z"/>
	<polygon style="fill:#FF7474;" points="395.8,395.8 447,395.8 447,344.6 395.8,344.6 	"/>
	<path style="fill:#ECF4F7;" d="M54.467,395.8H344.6v-34.133H54.467V395.8z M88.6,361.667h221.867v-34.133H88.6V361.667z
		 M175.64,152.6c15.36,4.267,31.573,3.413,31.573,3.413c5.973-0.853,11.947-1.707,17.92-4.267l0,0v175.787h-51.2V152.6H175.64z"/>
	<path style="fill:#FF7474;" d="M175.64,152.6h-2.56v-0.853c-29.867-10.24-51.2-38.4-51.2-72.533c0-42.667,34.133-76.8,76.8-76.8
		s76.8,34.133,76.8,76.8c0,33.28-21.333,62.293-51.2,72.533c-5.973,2.56-11.947,3.413-17.92,4.267
		C207.213,156.867,191,156.867,175.64,152.6"/>
</g>
<path style="fill:#51565F;" d="M465.067,503.467H38.4c-21.333,0-38.4-17.067-38.4-38.4v-51.2c0-11.947,9.387-21.333,21.333-21.333
	h460.8c11.947,0,21.333,9.387,21.333,21.333v51.2C503.467,486.4,486.4,503.467,465.067,503.467z M21.333,401.067
	c-6.827,0-12.8,5.973-12.8,12.8v51.2c0,16.213,13.653,29.867,29.867,29.867h426.667c16.213,0,29.867-13.653,29.867-29.867v-51.2
	c0-6.827-5.973-12.8-12.8-12.8H21.333z M448,366.933c-2.56,0-4.267-1.707-4.267-4.267v-12.8h-42.667v12.8
	c0,2.56-1.707,4.267-4.267,4.267s-4.267-1.707-4.267-4.267V345.6c0-2.56,1.707-4.267,4.267-4.267H448
	c2.56,0,4.267,1.707,4.267,4.267v17.067C452.267,365.227,450.56,366.933,448,366.933z M345.6,366.933H55.467
	c-2.56,0-4.267-1.707-4.267-4.267s1.707-4.267,4.267-4.267H345.6c2.56,0,4.267,1.707,4.267,4.267S348.16,366.933,345.6,366.933z
	 M311.467,332.8H89.6c-2.56,0-4.267-1.707-4.267-4.267c0-2.56,1.707-4.267,4.267-4.267h81.067V156.16
	c-30.72-11.947-51.2-41.813-51.2-75.093C119.467,36.693,156.16,0,200.533,0S281.6,36.693,281.6,81.067
	c0,41.813-31.573,76.8-72.533,81.067c-2.56,0-4.267-1.707-4.267-3.413c0-2.56,1.707-4.267,3.413-4.267
	c37.547-3.413,64.853-34.987,64.853-72.533c0-40.107-32.427-72.533-72.533-72.533S128,41.813,128,81.92
	c0,30.72,19.627,58.027,48.64,68.267c1.707,0.853,2.56,2.56,2.56,4.267V325.12h42.667V188.587c0-2.56,1.707-4.267,4.267-4.267
	s4.267,1.707,4.267,4.267V325.12h81.067c2.56,0,4.267,1.707,4.267,4.267C315.733,331.947,314.027,332.8,311.467,332.8z
	 M239.787,68.267c-1.707,0-3.413-0.853-4.267-2.56c-4.267-8.533-11.093-16.213-19.627-19.627c-2.56-0.853-3.413-3.413-2.56-5.973
	c0.853-2.56,3.413-3.413,5.973-2.56c11.093,5.12,19.627,13.653,24.747,23.893c0.853,2.56,0,4.267-2.56,5.973
	C240.64,68.267,239.787,68.267,239.787,68.267z"/>
<g>
</g>
<g>
</g>
<g>
</g>
<g>
</g>
<g>
</g>
<g>
</g>
<g>
</g>
<g>
</g>
<g>
</g>
<g>
</g>
<g>
</g>
<g>
</g>
<g>
</g>
<g>
</g>
<g>
</g>
</svg>
