<?xml version="1.0" ?><svg width="64px" height="64px" viewBox="0 0 64 64" id="Layer_1" style="enable-background:new 0 0 64 64;" version="1.1" xml:space="preserve" xmlns="http://www.w3.org/2000/svg" xmlns:xlink="http://www.w3.org/1999/xlink"><style type="text/css">
	.st0{fill:#FFFFFF;}
	.st1{fill:#bfc4c9;}
</style><g><g><circle class="st0" cx="32" cy="95" r="40"/></g><g><path class="st1" d="M32,14.5c-0.276,0-0.5-0.224-0.5-0.5V8c0-0.276,0.224-0.5,0.5-0.5s0.5,0.224,0.5,0.5v6    C32.5,14.276,32.276,14.5,32,14.5z"/></g><g><path class="st1" d="M33,20.5h-2c-0.276,0-0.5-0.224-0.5-0.5v-6c0-0.276,0.224-0.5,0.5-0.5h2c0.276,0,0.5,0.224,0.5,0.5v6    C33.5,20.276,33.276,20.5,33,20.5z M31.5,19.5h1v-5h-1V19.5z"/></g><g><path class="st1" d="M36,24.5h-8c-0.276,0-0.5-0.224-0.5-0.5v-4c0-0.276,0.224-0.5,0.5-0.5h8c0.276,0,0.5,0.224,0.5,0.5v4    C36.5,24.276,36.276,24.5,36,24.5z M28.5,23.5h7v-3h-7V23.5z"/></g><g><path class="st1" d="M37,20.5H27c-0.276,0-0.5-0.224-0.5-0.5s0.224-0.5,0.5-0.5h10c0.276,0,0.5,0.224,0.5,0.5S37.276,20.5,37,20.5    z"/></g><g><path class="st1" d="M37,24.5H27c-0.276,0-0.5-0.224-0.5-0.5s0.224-0.5,0.5-0.5h10c0.276,0,0.5,0.224,0.5,0.5S37.276,24.5,37,24.5    z"/></g><g><path class="st1" d="M36,26.5h-8c-0.276,0-0.5-0.224-0.5-0.5v-2c0-0.276,0.224-0.5,0.5-0.5h8c0.276,0,0.5,0.224,0.5,0.5v2    C36.5,26.276,36.276,26.5,36,26.5z M28.5,25.5h7v-1h-7V25.5z"/></g><g><path class="st1" d="M37,29.5H27c-0.276,0-0.5-0.224-0.5-0.5v-3c0-0.276,0.224-0.5,0.5-0.5h10c0.276,0,0.5,0.224,0.5,0.5v3    C37.5,29.276,37.276,29.5,37,29.5z M27.5,28.5h9v-2h-9V28.5z"/></g><g><path class="st1" d="M39,32.5H25c-0.276,0-0.5-0.224-0.5-0.5v-3c0-0.276,0.224-0.5,0.5-0.5h14c0.276,0,0.5,0.224,0.5,0.5v3    C39.5,32.276,39.276,32.5,39,32.5z M25.5,31.5h13v-2h-13V31.5z"/></g><g><path class="st1" d="M39,35.5H25c-0.276,0-0.5-0.224-0.5-0.5v-3c0-0.276,0.224-0.5,0.5-0.5h14c0.276,0,0.5,0.224,0.5,0.5v3    C39.5,35.276,39.276,35.5,39,35.5z M25.5,34.5h13v-2h-13V34.5z"/></g><g><path class="st1" d="M39.027,54.5c-0.276,0-0.5-0.224-0.5-0.5v-4.5H25.473V54c0,0.276-0.224,0.5-0.5,0.5s-0.5-0.224-0.5-0.5v-5    c0-0.276,0.224-0.5,0.5-0.5h14.055c0.276,0,0.5,0.224,0.5,0.5v5C39.527,54.276,39.304,54.5,39.027,54.5z"/></g><g><path class="st1" d="M39,49.5H25c-0.276,0-0.5-0.224-0.5-0.5V37c0-0.276,0.224-0.5,0.5-0.5s0.5,0.224,0.5,0.5v11.5h13V37    c0-0.276,0.224-0.5,0.5-0.5s0.5,0.224,0.5,0.5v12C39.5,49.276,39.276,49.5,39,49.5z"/></g><g><path class="st1" d="M41,32.5H23c-0.276,0-0.5-0.224-0.5-0.5s0.224-0.5,0.5-0.5h18c0.276,0,0.5,0.224,0.5,0.5S41.276,32.5,41,32.5    z"/></g><g><path class="st1" d="M41,29.5H23c-0.276,0-0.5-0.224-0.5-0.5s0.224-0.5,0.5-0.5h18c0.276,0,0.5,0.224,0.5,0.5S41.276,29.5,41,29.5    z"/></g><g><path class="st1" d="M41,35.5H23c-0.276,0-0.5-0.224-0.5-0.5s0.224-0.5,0.5-0.5h18c0.276,0,0.5,0.224,0.5,0.5S41.276,35.5,41,35.5    z"/></g><g><path class="st1" d="M41,49.5H23c-0.276,0-0.5-0.224-0.5-0.5s0.224-0.5,0.5-0.5h18c0.276,0,0.5,0.224,0.5,0.5S41.276,49.5,41,49.5    z"/></g><g><path class="st1" d="M32,47.5c-3.033,0-5.5-2.467-5.5-5.5s2.467-5.5,5.5-5.5s5.5,2.467,5.5,5.5S35.033,47.5,32,47.5z M32,37.5    c-2.481,0-4.5,2.019-4.5,4.5s2.019,4.5,4.5,4.5s4.5-2.019,4.5-4.5S34.481,37.5,32,37.5z"/></g><g><g><path class="st1" d="M30,24.469c-0.276,0-0.5-0.224-0.5-0.5V22c0-0.276,0.224-0.5,0.5-0.5s0.5,0.224,0.5,0.5v1.969     C30.5,24.245,30.276,24.469,30,24.469z"/></g><g><path class="st1" d="M32,24.469c-0.276,0-0.5-0.224-0.5-0.5V22c0-0.276,0.224-0.5,0.5-0.5s0.5,0.224,0.5,0.5v1.969     C32.5,24.245,32.276,24.469,32,24.469z"/></g><g><path class="st1" d="M34,24.469c-0.276,0-0.5-0.224-0.5-0.5V22c0-0.276,0.224-0.5,0.5-0.5s0.5,0.224,0.5,0.5v1.969     C34.5,24.245,34.276,24.469,34,24.469z"/></g></g><g><g><path class="st1" d="M27,35.5c-0.276,0-0.5-0.224-0.5-0.5v-3c0-0.276,0.224-0.5,0.5-0.5s0.5,0.224,0.5,0.5v3     C27.5,35.276,27.276,35.5,27,35.5z"/></g><g><path class="st1" d="M29.5,35.5c-0.276,0-0.5-0.224-0.5-0.5v-3c0-0.276,0.224-0.5,0.5-0.5S30,31.724,30,32v3     C30,35.276,29.776,35.5,29.5,35.5z"/></g><g><path class="st1" d="M32,35.5c-0.276,0-0.5-0.224-0.5-0.5v-3c0-0.276,0.224-0.5,0.5-0.5s0.5,0.224,0.5,0.5v3     C32.5,35.276,32.276,35.5,32,35.5z"/></g><g><path class="st1" d="M34.5,35.5c-0.276,0-0.5-0.224-0.5-0.5v-3c0-0.276,0.224-0.5,0.5-0.5S35,31.724,35,32v3     C35,35.276,34.776,35.5,34.5,35.5z"/></g><g><path class="st1" d="M37,35.5c-0.276,0-0.5-0.224-0.5-0.5v-3c0-0.276,0.224-0.5,0.5-0.5s0.5,0.224,0.5,0.5v3     C37.5,35.276,37.276,35.5,37,35.5z"/></g></g><g><g><path class="st1" d="M27,54.5c-0.276,0-0.5-0.224-0.5-0.5v-5c0-0.276,0.224-0.5,0.5-0.5s0.5,0.224,0.5,0.5v5     C27.5,54.276,27.276,54.5,27,54.5z"/></g><g><path class="st1" d="M29.5,54.5c-0.276,0-0.5-0.224-0.5-0.5v-5c0-0.276,0.224-0.5,0.5-0.5S30,48.724,30,49v5     C30,54.276,29.776,54.5,29.5,54.5z"/></g><g><path class="st1" d="M32,54.5c-0.276,0-0.5-0.224-0.5-0.5v-5c0-0.276,0.224-0.5,0.5-0.5s0.5,0.224,0.5,0.5v5     C32.5,54.276,32.276,54.5,32,54.5z"/></g><g><path class="st1" d="M34.5,54.5c-0.276,0-0.5-0.224-0.5-0.5v-5c0-0.276,0.224-0.5,0.5-0.5S35,48.724,35,49v5     C35,54.276,34.776,54.5,34.5,54.5z"/></g><g><path class="st1" d="M37,54.5c-0.276,0-0.5-0.224-0.5-0.5v-5c0-0.276,0.224-0.5,0.5-0.5s0.5,0.224,0.5,0.5v5     C37.5,54.276,37.276,54.5,37,54.5z"/></g></g><g><path class="st1" d="M41,16.5h-5c-0.276,0-0.5-0.224-0.5-0.5s0.224-0.5,0.5-0.5h5c0.276,0,0.5,0.224,0.5,0.5S41.276,16.5,41,16.5z    "/></g><g><path class="st1" d="M17,40.5h-5c-0.276,0-0.5-0.224-0.5-0.5s0.224-0.5,0.5-0.5h5c0.276,0,0.5,0.224,0.5,0.5S17.276,40.5,17,40.5z    "/></g><g><g><path class="st1" d="M32,43.5c-0.128,0-0.256-0.049-0.354-0.146l-2-2c-0.195-0.195-0.195-0.512,0-0.707s0.512-0.195,0.707,0     L32,42.293l2.646-2.646c0.195-0.195,0.512-0.195,0.707,0s0.195,0.512,0,0.707l-3,3C32.256,43.451,32.128,43.5,32,43.5z"/></g></g><g><path class="st1" d="M23,25.5h-3c-0.276,0-0.5-0.224-0.5-0.5v-1c0-1.378-1.122-2.5-2.5-2.5s-2.5,1.122-2.5,2.5v1    c0,0.276-0.224,0.5-0.5,0.5s-0.5-0.224-0.5-0.5v-0.5c0-0.551-0.449-1-1-1s-1,0.449-1,1V25c0,0.276-0.224,0.5-0.5,0.5H8    c-0.276,0-0.5-0.224-0.5-0.5s0.224-0.5,0.5-0.5h2.5c0-1.103,0.897-2,2-2c0.441,0,0.85,0.144,1.181,0.387    C14.147,21.501,15.459,20.5,17,20.5c1.93,0,3.5,1.57,3.5,3.5v0.5H23c0.276,0,0.5,0.224,0.5,0.5S23.276,25.5,23,25.5z"/></g><g><path class="st1" d="M52.268,40.5c-0.276,0-0.5-0.224-0.5-0.5c0-0.827-0.673-1.5-1.5-1.5c-0.534,0-1.032,0.287-1.299,0.75    c-0.138,0.239-0.443,0.321-0.683,0.182c-0.239-0.138-0.321-0.444-0.182-0.683c0.445-0.771,1.275-1.249,2.165-1.249    c1.378,0,2.5,1.122,2.5,2.5C52.768,40.276,52.544,40.5,52.268,40.5z"/></g><g><path class="st1" d="M52.268,40.5c-0.276,0-0.5-0.224-0.5-0.5c0-1.378,1.122-2.5,2.5-2.5c0.89,0,1.72,0.479,2.165,1.249    c0.139,0.239,0.057,0.545-0.182,0.683c-0.241,0.139-0.546,0.057-0.683-0.182c-0.268-0.463-0.766-0.75-1.3-0.75    c-0.827,0-1.5,0.673-1.5,1.5C52.768,40.276,52.544,40.5,52.268,40.5z"/></g><g><path class="st1" d="M53.268,40.5h-2c-0.276,0-0.5-0.224-0.5-0.5s0.224-0.5,0.5-0.5h2c0.276,0,0.5,0.224,0.5,0.5    S53.544,40.5,53.268,40.5z"/></g></g></svg>