<svg xmlns="http://www.w3.org/2000/svg" xmlns:xlink="http://www.w3.org/1999/xlink" width="64" height="70.75675666967913" style="enable-background:new 0 0 64 64;" version="1.1" xml:space="preserve"><rect id="backgroundrect" width="100%" height="100%" x="0" y="0" fill="none" stroke="none" class="" style=""/><style type="text/css">
	.st0{fill:#f6f4d8; }
	.st1{fill:#7e8893; }
</style><g class="currentLayer" style=""><title>Layer 1</title><g class="" strokeWidth="1" opacity="1" filter="url(#f034)"><g id="svg_4" class="" strokeWidth="1" opacity="1" filter="url(#f034)"><path class="st1" d="M48.85395122241974,37.79268288612366 c-0.276,0 -0.5,-0.22400000000000023 -0.5,-0.5 c0,-0.8270000000000006 -0.6730000000000009,-1.5 -1.5,-1.5 c-0.534,0 -1.032,0.2870000000000003 -1.3,0.7500000000000007 c-0.139,0.24000000000000016 -0.4450000000000004,0.3220000000000004 -0.6830000000000009,0.18200000000000016 c-0.23900000000000016,-0.138 -0.3210000000000004,-0.4440000000000004 -0.18300000000000016,-0.6830000000000009 c0.4450000000000004,-0.771 1.275,-1.249 2.165,-1.249 c1.379,0 2.5,1.122 2.5,2.5 C49.35395122241974,37.56868288612366 49.13095122241974,37.79268288612366 48.85395122241974,37.79268288612366 z" id="svg_5" strokeWidth="1" opacity="1" filter="url(#f034)"/></g><g id="svg_6" class="" strokeWidth="1" opacity="1" filter="url(#f034)"><path class="st1" d="M48.85395122241974,37.79268288612366 c-0.276,0 -0.5,-0.22400000000000023 -0.5,-0.5 c0,-1.3780000000000001 1.121,-2.5 2.5,-2.5 c0.8900000000000008,0 1.7200000000000002,0.4790000000000003 2.165,1.249 c0.139,0.23900000000000016 0.05700000000000005,0.545 -0.18300000000000016,0.6830000000000009 c-0.23700000000000004,0.138 -0.544,0.05700000000000005 -0.6830000000000009,-0.18200000000000016 c-0.268,-0.463 -0.7660000000000008,-0.7500000000000007 -1.3,-0.7500000000000007 c-0.8270000000000006,0 -1.5,0.6730000000000009 -1.5,1.5 C49.35395122241974,37.56868288612366 49.13095122241974,37.79268288612366 48.85395122241974,37.79268288612366 z" id="svg_7" strokeWidth="1" opacity="1" filter="url(#f034)"/></g><g id="svg_8" class="" strokeWidth="1" opacity="1" filter="url(#f034)"><path class="st1" d="M49.85395122241974,37.79268288612366 h-2 c-0.276,0 -0.5,-0.22400000000000023 -0.5,-0.5 s0.22400000000000023,-0.5 0.5,-0.5 h2 c0.276,0 0.5,0.22400000000000023 0.5,0.5 S50.13095122241974,37.79268288612366 49.85395122241974,37.79268288612366 z" id="svg_9" strokeWidth="1" opacity="1" filter="url(#f034)"/></g><g id="svg_10" class="" strokeWidth="1" opacity="1" filter="url(#f034)"><path class="st1" d="M53.12195122241974,15.792682886123657 h-4 c-0.276,0 -0.5,-0.22400000000000023 -0.5,-0.5 s0.22400000000000023,-0.5 0.5,-0.5 h4 c0.276,0 0.5,0.22400000000000023 0.5,0.5 S53.39795122241974,15.792682886123657 53.12195122241974,15.792682886123657 z" id="svg_11" strokeWidth="1" opacity="1" filter="url(#f034)"/></g><g id="svg_12" class="" strokeWidth="1" opacity="1" filter="url(#f034)"><path class="st1" d="M38.96195122241974,57.762682886123656 c-0.17300000000000001,0 -0.34200000000000047,-0.09000000000000014 -0.43500000000000033,-0.252 c-1.1320000000000001,-1.982 -2.821,-3.517 -4.756,-4.319 C33.13395122241974,52.92668288612366 32.57895122241974,52.79268288612366 32.12195122241974,52.79268288612366 c-0.5630000000000006,0 -1.2690000000000001,0.202 -2.096,0.6000000000000006 c-1.7640000000000002,0.8460000000000006 -3.25,2.2640000000000002 -4.299,4.099 c-0.139,0.24100000000000016 -0.4460000000000004,0.3210000000000004 -0.6830000000000009,0.18600000000000017 c-0.24000000000000016,-0.137 -0.3230000000000004,-0.44200000000000034 -0.18700000000000017,-0.6820000000000009 c1.15,-2.013 2.7880000000000003,-3.5700000000000003 4.734,-4.504 C30.556951222419737,52.02768288612366 31.40795122241974,51.79268288612366 32.12195122241974,51.79268288612366 c0.5890000000000006,0 1.272,0.16000000000000023 2.032,0.4750000000000003 c2.1390000000000002,0.8880000000000008 4,2.573 5.242,4.747 c0.137,0.24000000000000016 0.05300000000000007,0.545 -0.18700000000000017,0.6820000000000009 C39.13195122241974,57.741682886123655 39.046951222419736,57.762682886123656 38.96195122241974,57.762682886123656 z" id="svg_13" strokeWidth="1" opacity="1" filter="url(#f034)"/></g><g id="svg_14" class="" strokeWidth="1" opacity="1" filter="url(#f034)"><path class="st1" d="M45.12195122241974,57.95968288612366 c-0.17700000000000016,0 -0.3490000000000005,-0.09400000000000017 -0.43800000000000033,-0.261 L39.82495122241974,48.79268288612366 H24.41895122241974 l-4.768,8.739 c-0.131,0.24200000000000016 -0.43700000000000033,0.33200000000000046 -0.6780000000000009,0.2 c-0.24200000000000016,-0.132 -0.33200000000000046,-0.43600000000000033 -0.19900000000000026,-0.6780000000000009 l4.909,-9 C23.769951222419742,47.89268288612366 23.93895122241974,47.79268288612366 24.12195122241974,47.79268288612366 h16 c0.18300000000000016,0 0.3520000000000003,0.1 0.43800000000000033,0.261 l5,9.167 c0.133,0.24200000000000016 0.04300000000000006,0.546 -0.19900000000000026,0.6780000000000009 C45.284951222419735,57.939682886123656 45.20295122241974,57.95968288612366 45.12195122241974,57.95968288612366 z" id="svg_15" strokeWidth="1" opacity="1" filter="url(#f034)"/></g><g id="svg_16" class="" strokeWidth="1" opacity="1" filter="url(#f034)"><path class="st1" d="M40.12195122241974,48.79268288612366 H24.12195122241974 c-0.276,0 -0.5,-0.22400000000000023 -0.5,-0.5 v-3 c0,-0.276 0.22400000000000023,-0.5 0.5,-0.5 h16 c0.276,0 0.5,0.22400000000000023 0.5,0.5 v3 C40.62195122241974,48.56868288612366 40.39795122241974,48.79268288612366 40.12195122241974,48.79268288612366 zM24.62195122241974,47.79268288612366 h15 v-2 h-15 V47.79268288612366 z" id="svg_17" strokeWidth="1" opacity="1" filter="url(#f034)"/></g><g id="svg_18" class="" strokeWidth="1" opacity="1" filter="url(#f034)"><path class="st1" d="M41.12195122241974,45.79268288612366 H23.12195122241974 c-0.276,0 -0.5,-0.22400000000000023 -0.5,-0.5 s0.22400000000000023,-0.5 0.5,-0.5 h18 c0.276,0 0.5,0.22400000000000023 0.5,0.5 S41.39795122241974,45.79268288612366 41.12195122241974,45.79268288612366 z" id="svg_19" strokeWidth="1" opacity="1" filter="url(#f034)"/></g><g id="svg_20" class="" strokeWidth="1" opacity="1" filter="url(#f034)"><path class="st1" d="M36.92095122241974,35.79268288612366 h-9.598 c-0.15800000000000017,0 -0.30800000000000033,-0.07500000000000002 -0.401,-0.202 c-0.09500000000000017,-0.127 -0.12300000000000008,-0.2920000000000003 -0.07700000000000008,-0.44300000000000034 c0.3210000000000004,-1.054 0.5860000000000006,-2.051 0.789,-2.963 C27.684951222419738,31.955682886123657 27.88795122241974,31.792682886123657 28.12195122241974,31.792682886123657 h8 c0.234,0 0.43800000000000033,0.16300000000000023 0.4880000000000003,0.3920000000000004 c0.203,0.912 0.468,1.909 0.789,2.963 c0.046000000000000076,0.15100000000000016 0.01800000000000002,0.31600000000000034 -0.07700000000000008,0.44300000000000034 C37.22795122241974,35.717682886123654 37.07895122241974,35.79268288612366 36.92095122241974,35.79268288612366 zM27.992951222419737,34.79268288612366 h8.258 c-0.202,-0.697000000000001 -0.37800000000000034,-1.366 -0.527,-2 h-7.203 C28.370951222419738,33.42668288612366 28.19495122241974,34.095682886123654 27.992951222419737,34.79268288612366 z" id="svg_21" strokeWidth="1" opacity="1" filter="url(#f034)"/></g><g id="svg_22" class="" strokeWidth="1" opacity="1" filter="url(#f034)"><path class="st1" d="M35.12195122241974,19.792682886123657 h-6 c-0.276,0 -0.5,-0.22400000000000023 -0.5,-0.5 v-2 c0,-0.276 0.22400000000000023,-0.5 0.5,-0.5 h6 c0.276,0 0.5,0.22400000000000023 0.5,0.5 v2 C35.62195122241974,19.568682886123657 35.39795122241974,19.792682886123657 35.12195122241974,19.792682886123657 zM29.62195122241974,18.792682886123657 h5 v-1 h-5 V18.792682886123657 z" id="svg_23" strokeWidth="1" opacity="1" filter="url(#f034)"/></g><g id="svg_24" class="" strokeWidth="1" opacity="1" filter="url(#f034)"><path class="st1" d="M34.12195122241974,17.792682886123657 h-4 c-0.17300000000000001,0 -0.33400000000000046,-0.09000000000000014 -0.4260000000000003,-0.23700000000000004 c-0.09100000000000016,-0.14700000000000016 -0.09900000000000017,-0.33200000000000046 -0.021000000000000026,-0.4860000000000003 l2,-4 c0.17,-0.33900000000000047 0.7250000000000006,-0.33900000000000047 0.8950000000000008,0 l2,4 c0.07700000000000008,0.15500000000000017 0.06900000000000012,0.33900000000000047 -0.021000000000000026,0.4860000000000003 C34.45595122241974,17.702682886123657 34.29495122241974,17.792682886123657 34.12195122241974,17.792682886123657 zM30.93095122241974,16.792682886123657 h2.383 L32.12195122241974,14.410682886123658 L30.93095122241974,16.792682886123657 z" id="svg_25" strokeWidth="1" opacity="1" filter="url(#f034)"/></g><g id="svg_26" class="" strokeWidth="1" opacity="1" filter="url(#f034)"><path class="st1" d="M32.12195122241974,13.792682886123657 c-0.276,0 -0.5,-0.22400000000000023 -0.5,-0.5 V11.292682886123657 c0,-0.276 0.22400000000000023,-0.5 0.5,-0.5 s0.5,0.22400000000000023 0.5,0.5 v2 C32.62195122241974,13.568682886123657 32.39795122241974,13.792682886123657 32.12195122241974,13.792682886123657 z" id="svg_27" strokeWidth="1" opacity="1" filter="url(#f034)"/></g><g id="svg_28" class="" strokeWidth="1" opacity="1" filter="url(#f034)"><path class="st1" d="M38.12195122241974,35.79268288612366 H26.12195122241974 c-0.276,0 -0.5,-0.22400000000000023 -0.5,-0.5 s0.22400000000000023,-0.5 0.5,-0.5 h12 c0.276,0 0.5,0.22400000000000023 0.5,0.5 S38.39795122241974,35.79268288612366 38.12195122241974,35.79268288612366 z" id="svg_29" strokeWidth="1" opacity="1" filter="url(#f034)"/></g><g id="svg_30" class="" strokeWidth="1" opacity="1" filter="url(#f034)"><path class="st1" d="M37.12195122241974,32.79268288612366 H27.12195122241974 c-0.276,0 -0.5,-0.22400000000000023 -0.5,-0.5 s0.22400000000000023,-0.5 0.5,-0.5 h10 c0.276,0 0.5,0.22400000000000023 0.5,0.5 S37.39795122241974,32.79268288612366 37.12195122241974,32.79268288612366 z" id="svg_31" strokeWidth="1" opacity="1" filter="url(#f034)"/></g><g id="svg_32" class="" strokeWidth="1" opacity="1" filter="url(#f034)"><path class="st1" d="M32.12195122241974,32.79268288612366 c-0.276,0 -0.5,-0.22400000000000023 -0.5,-0.5 V19.292682886123657 c0,-0.276 0.22400000000000023,-0.5 0.5,-0.5 s0.5,0.22400000000000023 0.5,0.5 v13 C32.62195122241974,32.56868288612365 32.39795122241974,32.79268288612366 32.12195122241974,32.79268288612366 z" id="svg_33" strokeWidth="1" opacity="1" filter="url(#f034)"/></g><g id="svg_34" class="" strokeWidth="1" opacity="1" filter="url(#f034)"><path class="st1" d="M30.12195122241974,33.79268288612366 c-0.276,0 -0.5,-0.22400000000000023 -0.5,-0.5 v-1 c0,-0.276 0.22400000000000023,-0.5 0.5,-0.5 s0.5,0.22400000000000023 0.5,0.5 v1 C30.62195122241974,33.56868288612365 30.39795122241974,33.79268288612366 30.12195122241974,33.79268288612366 z" id="svg_35" strokeWidth="1" opacity="1" filter="url(#f034)"/></g><g id="svg_36" class="" strokeWidth="1" opacity="1" filter="url(#f034)"><path class="st1" d="M32.12195122241974,33.79268288612366 c-0.276,0 -0.5,-0.22400000000000023 -0.5,-0.5 v-1 c0,-0.276 0.22400000000000023,-0.5 0.5,-0.5 s0.5,0.22400000000000023 0.5,0.5 v1 C32.62195122241974,33.56868288612365 32.39795122241974,33.79268288612366 32.12195122241974,33.79268288612366 z" id="svg_37" strokeWidth="1" opacity="1" filter="url(#f034)"/></g><g id="svg_38" class="" strokeWidth="1" opacity="1" filter="url(#f034)"><path class="st1" d="M34.12195122241974,33.79268288612366 c-0.276,0 -0.5,-0.22400000000000023 -0.5,-0.5 v-1 c0,-0.276 0.22400000000000023,-0.5 0.5,-0.5 s0.5,0.22400000000000023 0.5,0.5 v1 C34.62195122241974,33.56868288612365 34.39795122241974,33.79268288612366 34.12195122241974,33.79268288612366 z" id="svg_39" strokeWidth="1" opacity="1" filter="url(#f034)"/></g><g id="svg_40" class="" strokeWidth="1" opacity="1" filter="url(#f034)"><path class="st1" d="M39.12195122241974,45.79268288612366 h-4 c-0.23800000000000004,0 -0.44300000000000034,-0.16800000000000026 -0.4900000000000003,-0.402 l-2,-10 c-0.029000000000000033,-0.14700000000000016 0.009000000000000018,-0.2990000000000003 0.10400000000000002,-0.4150000000000003 S32.97295122241974,34.79268288612366 33.12195122241974,34.79268288612366 h3.745 c0.23800000000000004,0 0.44300000000000034,0.16800000000000026 0.4900000000000003,0.401 c1.002,4.97 2.237,9.928 2.25,9.978 c0.03700000000000001,0.14900000000000016 0.004000000000000005,0.30800000000000033 -0.09100000000000016,0.4290000000000003 C39.421951222419736,45.72168288612366 39.27595122241974,45.79268288612366 39.12195122241974,45.79268288612366 zM35.531951222419735,44.79268288612366 h2.952 c-0.3520000000000003,-1.441 -1.246,-5.178 -2.026,-9 H33.73195122241974 L35.531951222419735,44.79268288612366 z" id="svg_41" strokeWidth="1" opacity="1" filter="url(#f034)"/></g><g id="svg_42" class="" strokeWidth="1" opacity="1" filter="url(#f034)"><path class="st1" d="M29.12195122241974,45.79268288612366 h-4 c-0.15400000000000016,0 -0.2990000000000003,-0.07100000000000002 -0.39500000000000046,-0.19200000000000023 c-0.09500000000000017,-0.12100000000000002 -0.128,-0.279 -0.09100000000000016,-0.4290000000000003 c0.013000000000000018,-0.05000000000000006 1.248,-5.009 2.25,-9.978 c0.04700000000000004,-0.233 0.252,-0.401 0.4900000000000003,-0.401 H31.12195122241974 c0.14900000000000016,0 0.2920000000000003,0.0670000000000001 0.3870000000000004,0.18300000000000016 s0.133,0.268 0.10400000000000002,0.4150000000000003 l-2,10 C29.56495122241974,45.62468288612366 29.35995122241974,45.79268288612366 29.12195122241974,45.79268288612366 zM25.75995122241974,44.79268288612366 h2.952 l1.8,-9 h-2.726 C27.00595122241974,39.61468288612366 26.11095122241974,43.351682886123655 25.75995122241974,44.79268288612366 z" id="svg_43" strokeWidth="1" opacity="1" filter="url(#f034)"/></g><g id="svg_44" class="" strokeWidth="1" opacity="1" filter="url(#f034)"><path class="st1" d="M30.321951222419738,39.79268288612366 h-3.806 c-0.276,0 -0.5,-0.22400000000000023 -0.5,-0.5 s0.22400000000000023,-0.5 0.5,-0.5 H30.321951222419738 c0.276,0 0.5,0.22400000000000023 0.5,0.5 S30.59895122241974,39.79268288612366 30.321951222419738,39.79268288612366 z" id="svg_45" strokeWidth="1" opacity="1" filter="url(#f034)"/></g><g id="svg_46" class="" strokeWidth="1" opacity="1" filter="url(#f034)"><path class="st1" d="M25.12195122241974,45.79268288612366 c-0.11600000000000012,0 -0.232,-0.04000000000000004 -0.3270000000000004,-0.12200000000000008 c-0.20900000000000016,-0.18100000000000016 -0.231,-0.49700000000000033 -0.05100000000000006,-0.7060000000000006 l4.937,-5.695 L26.922951222419737,35.592682886123654 c-0.16500000000000023,-0.22100000000000017 -0.12000000000000002,-0.534 0.101,-0.7000000000000006 c0.22000000000000017,-0.16500000000000023 0.533,-0.12200000000000008 0.7000000000000006,0.1 l2.999,4 c0.14100000000000001,0.18800000000000017 0.132,0.4490000000000004 -0.02200000000000004,0.6270000000000007 l-5.2,6 C25.40095122241974,45.73368288612366 25.26195122241974,45.79268288612366 25.12195122241974,45.79268288612366 z" id="svg_47" strokeWidth="1" opacity="1" filter="url(#f034)"/></g><g id="svg_48" class="" strokeWidth="1" opacity="1" filter="url(#f034)"><path class="st1" d="M37.726951222419736,39.79268288612366 H33.921951222419736 c-0.276,0 -0.5,-0.22400000000000023 -0.5,-0.5 s0.22400000000000023,-0.5 0.5,-0.5 h3.806 c0.276,0 0.5,0.22400000000000023 0.5,0.5 S38.00395122241974,39.79268288612366 37.726951222419736,39.79268288612366 z" id="svg_49" strokeWidth="1" opacity="1" filter="url(#f034)"/></g><g id="svg_50" class="" strokeWidth="1" opacity="1" filter="url(#f034)"><path class="st1" d="M39.12195122241974,45.79268288612366 c-0.14,0 -0.279,-0.05900000000000006 -0.37800000000000034,-0.17200000000000001 l-5.2,-6 c-0.15400000000000016,-0.17800000000000016 -0.16300000000000023,-0.43900000000000033 -0.02200000000000004,-0.6270000000000007 l2.999,-4 c0.16700000000000026,-0.22100000000000017 0.4800000000000003,-0.265 0.7000000000000006,-0.1 c0.22100000000000017,0.16600000000000023 0.266,0.4790000000000003 0.101,0.7000000000000006 l-2.758,3.677 l4.937,5.695 c0.18100000000000016,0.20900000000000016 0.15800000000000017,0.524 -0.05100000000000006,0.7060000000000006 C39.35395122241974,45.75268288612366 39.23795122241974,45.79268288612366 39.12195122241974,45.79268288612366 z" id="svg_51" strokeWidth="1" opacity="1" filter="url(#f034)"/></g><g id="svg_52" class="" strokeWidth="1" opacity="1" filter="url(#f034)"><path class="st1" d="M36.12195122241974,32.79268288612366 h-8 c-0.16100000000000023,0 -0.31200000000000033,-0.07700000000000008 -0.405,-0.20800000000000016 c-0.09500000000000017,-0.13 -0.12000000000000002,-0.2980000000000003 -0.06900000000000012,-0.451 c0.972,-2.9130000000000003 1.967,-12.792 1.978,-12.892 c0.025000000000000033,-0.255 0.24000000000000016,-0.45 0.49700000000000033,-0.45 h4 c0.257,0 0.4720000000000003,0.19500000000000023 0.49700000000000033,0.45 c0.011000000000000018,0.1 1.006,9.979 1.978,12.892 c0.05100000000000006,0.15200000000000016 0.025000000000000033,0.3200000000000004 -0.06900000000000012,0.451 C36.433951222419736,32.71568288612366 36.28295122241974,32.79268288612366 36.12195122241974,32.79268288612366 zM28.78895122241974,31.792682886123657 h6.666 c-0.8250000000000006,-3.144 -1.59,-10.137 -1.784,-12 h-3.098 C30.37895122241974,21.655682886123657 29.61395122241974,28.64868288612366 28.78895122241974,31.792682886123657 z" id="svg_53" strokeWidth="1" opacity="1" filter="url(#f034)"/></g><g id="svg_54" class="" strokeWidth="1" opacity="1" filter="url(#f034)"><path class="st1" d="M32.12195122241974,21.792682886123657 c-0.054000000000000076,0 -0.10600000000000002,-0.009000000000000018 -0.15800000000000017,-0.02600000000000004 l-2.137,-0.7110000000000006 c-0.262,-0.08700000000000012 -0.403,-0.37100000000000033 -0.31600000000000034,-0.6330000000000008 c0.08900000000000012,-0.262 0.37200000000000033,-0.402 0.6330000000000008,-0.31600000000000034 L32.12195122241974,20.765682886123656 l1.979,-0.6590000000000009 c0.263,-0.08700000000000012 0.545,0.054000000000000076 0.6330000000000008,0.31600000000000034 c0.08700000000000012,0.262 -0.05500000000000004,0.545 -0.31600000000000034,0.6330000000000008 l-2.137,0.7110000000000006 C32.22795122241974,21.783682886123657 32.17595122241974,21.792682886123657 32.12195122241974,21.792682886123657 z" id="svg_55" strokeWidth="1" opacity="1" filter="url(#f034)"/></g><g id="svg_56" class="" strokeWidth="1" opacity="1" filter="url(#f034)"><path class="st1" d="M34.549951222419736,23.60168288612366 c-0.05300000000000007,0 -0.10500000000000002,-0.00800000000000001 -0.15800000000000017,-0.02600000000000004 L32.12195122241974,22.81968288612366 l-2.27,0.7560000000000007 c-0.261,0.08800000000000012 -0.544,-0.05300000000000007 -0.6330000000000008,-0.31600000000000034 c-0.08700000000000012,-0.262 0.05500000000000004,-0.545 0.31600000000000034,-0.6320000000000008 l2.428,-0.809 c0.10400000000000002,-0.03400000000000005 0.21300000000000016,-0.03400000000000005 0.31600000000000034,0 l2.428,0.809 c0.262,0.08700000000000012 0.403,0.37000000000000033 0.31600000000000034,0.6320000000000008 C34.95395122241974,23.469682886123657 34.75895122241974,23.60168288612366 34.549951222419736,23.60168288612366 z" id="svg_57" strokeWidth="1" opacity="1" filter="url(#f034)"/></g><g id="svg_58" class="" strokeWidth="1" opacity="1" filter="url(#f034)"><path class="st1" d="M32.12195122241974,25.792682886123657 c-0.054000000000000076,0 -0.10600000000000002,-0.009000000000000018 -0.15800000000000017,-0.02600000000000004 l-2.5940000000000003,-0.8650000000000007 c-0.262,-0.08700000000000012 -0.403,-0.37000000000000033 -0.31600000000000034,-0.6320000000000008 c0.08800000000000012,-0.262 0.37100000000000033,-0.401 0.6330000000000008,-0.31600000000000034 L32.12195122241974,24.765682886123656 l2.436,-0.812 c0.262,-0.08600000000000012 0.545,0.054000000000000076 0.6330000000000008,0.31600000000000034 c0.08700000000000012,0.262 -0.05500000000000004,0.545 -0.31600000000000034,0.6320000000000008 l-2.5940000000000003,0.8650000000000007 C32.22795122241974,25.783682886123657 32.17595122241974,25.792682886123657 32.12195122241974,25.792682886123657 z" id="svg_59" strokeWidth="1" opacity="1" filter="url(#f034)"/></g><g id="svg_60" class="" strokeWidth="1" opacity="1" filter="url(#f034)"><path class="st1" d="M35.12195122241974,27.792682886123657 c-0.05300000000000007,0 -0.10500000000000002,-0.00800000000000001 -0.15800000000000017,-0.02600000000000004 L32.12195122241974,26.81968288612366 l-2.842,0.9470000000000006 c-0.261,0.08700000000000012 -0.544,-0.05300000000000007 -0.6330000000000008,-0.31600000000000034 c-0.08700000000000012,-0.262 0.05500000000000004,-0.545 0.31600000000000034,-0.6320000000000008 l3,-1 c0.10400000000000002,-0.03400000000000005 0.21300000000000016,-0.03400000000000005 0.31600000000000034,0 l3,1 c0.262,0.08700000000000012 0.403,0.37000000000000033 0.31600000000000034,0.6320000000000008 C35.52595122241974,27.660682886123656 35.33095122241974,27.792682886123657 35.12195122241974,27.792682886123657 z" id="svg_61" strokeWidth="1" opacity="1" filter="url(#f034)"/></g><g id="svg_62" class="" strokeWidth="1" opacity="1" filter="url(#f034)"><path class="st1" d="M32.12195122241974,29.792682886123657 c-0.054000000000000076,0 -0.10600000000000002,-0.009000000000000018 -0.15800000000000017,-0.02600000000000004 l-3,-1 c-0.262,-0.08700000000000012 -0.403,-0.37000000000000033 -0.31600000000000034,-0.6320000000000008 c0.08900000000000012,-0.262 0.37300000000000033,-0.401 0.6330000000000008,-0.31600000000000034 L32.12195122241974,28.765682886123656 l2.842,-0.9470000000000006 c0.262,-0.08500000000000012 0.545,0.054000000000000076 0.6330000000000008,0.31600000000000034 c0.08700000000000012,0.262 -0.05500000000000004,0.545 -0.31600000000000034,0.6320000000000008 l-3,1 C32.22795122241974,29.783682886123657 32.17595122241974,29.792682886123657 32.12195122241974,29.792682886123657 z" id="svg_63" strokeWidth="1" opacity="1" filter="url(#f034)"/></g><g id="svg_64" class="" strokeWidth="1" opacity="1" filter="url(#f034)"><path class="st1" d="M36.12195122241974,32.79268288612366 c-0.07500000000000002,0 -0.15100000000000016,-0.017000000000000026 -0.22400000000000023,-0.05300000000000007 L32.12195122241974,30.85168288612366 l-3.776,1.8880000000000003 c-0.24800000000000016,0.12300000000000008 -0.547,0.02400000000000002 -0.6710000000000009,-0.22400000000000023 c-0.12300000000000008,-0.24700000000000016 -0.02300000000000004,-0.547 0.22400000000000023,-0.6710000000000009 l4,-2 c0.14100000000000001,-0.07 0.30700000000000033,-0.07 0.4470000000000004,0 l4,2 c0.24700000000000016,0.12400000000000008 0.3470000000000005,0.4240000000000003 0.22400000000000023,0.6710000000000009 C36.48095122241974,32.69168288612366 36.30495122241974,32.79268288612366 36.12195122241974,32.79268288612366 z" id="svg_65" strokeWidth="1" opacity="1" filter="url(#f034)"/></g><g id="svg_66" class="" strokeWidth="1" opacity="1" filter="url(#f034)"><path class="st1" d="M42.30395122241974,52.79268288612366 H21.93995122241974 c-0.17700000000000016,0 -0.34000000000000047,-0.09300000000000017 -0.4300000000000003,-0.24500000000000016 c-0.09100000000000016,-0.15200000000000016 -0.09400000000000017,-0.34000000000000047 -0.009000000000000018,-0.49500000000000033 l2.182,-4 C23.769951222419742,47.89268288612366 23.93895122241974,47.79268288612366 24.12195122241974,47.79268288612366 h16 c0.18300000000000016,0 0.3520000000000003,0.1 0.43800000000000033,0.261 l2.182,4 c0.08500000000000012,0.15500000000000017 0.0820000000000001,0.34300000000000047 -0.009000000000000018,0.49500000000000033 C42.64295122241974,52.699682886123654 42.479951222419736,52.79268288612366 42.30395122241974,52.79268288612366 zM22.78195122241974,51.79268288612366 h18.68 l-1.637,-3 H24.41895122241974 L22.78195122241974,51.79268288612366 z" id="svg_67" strokeWidth="1" opacity="1" filter="url(#f034)"/></g><g id="svg_68" class="" strokeWidth="1" opacity="1" filter="url(#f034)"><path class="st1" d="M26.12195122241974,46.79268288612366 c-0.276,0 -0.5,-0.22400000000000023 -0.5,-0.5 v-1 c0,-0.276 0.22400000000000023,-0.5 0.5,-0.5 s0.5,0.22400000000000023 0.5,0.5 v1 C26.62195122241974,46.56868288612366 26.39795122241974,46.79268288612366 26.12195122241974,46.79268288612366 z" id="svg_69" strokeWidth="1" opacity="1" filter="url(#f034)"/></g><g id="svg_70" class="" strokeWidth="1" opacity="1" filter="url(#f034)"><path class="st1" d="M28.12195122241974,46.79268288612366 c-0.276,0 -0.5,-0.22400000000000023 -0.5,-0.5 v-1 c0,-0.276 0.22400000000000023,-0.5 0.5,-0.5 s0.5,0.22400000000000023 0.5,0.5 v1 C28.62195122241974,46.56868288612366 28.39795122241974,46.79268288612366 28.12195122241974,46.79268288612366 z" id="svg_71" strokeWidth="1" opacity="1" filter="url(#f034)"/></g><g id="svg_72" class="" strokeWidth="1" opacity="1" filter="url(#f034)"><path class="st1" d="M30.12195122241974,46.79268288612366 c-0.276,0 -0.5,-0.22400000000000023 -0.5,-0.5 v-1 c0,-0.276 0.22400000000000023,-0.5 0.5,-0.5 s0.5,0.22400000000000023 0.5,0.5 v1 C30.62195122241974,46.56868288612366 30.39795122241974,46.79268288612366 30.12195122241974,46.79268288612366 z" id="svg_73" strokeWidth="1" opacity="1" filter="url(#f034)"/></g><g id="svg_74" class="" strokeWidth="1" opacity="1" filter="url(#f034)"><path class="st1" d="M32.12195122241974,46.79268288612366 c-0.276,0 -0.5,-0.22400000000000023 -0.5,-0.5 v-1 c0,-0.276 0.22400000000000023,-0.5 0.5,-0.5 s0.5,0.22400000000000023 0.5,0.5 v1 C32.62195122241974,46.56868288612366 32.39795122241974,46.79268288612366 32.12195122241974,46.79268288612366 z" id="svg_75" strokeWidth="1" opacity="1" filter="url(#f034)"/></g><g id="svg_76" class="" strokeWidth="1" opacity="1" filter="url(#f034)"><path class="st1" d="M34.12195122241974,46.79268288612366 c-0.276,0 -0.5,-0.22400000000000023 -0.5,-0.5 v-1 c0,-0.276 0.22400000000000023,-0.5 0.5,-0.5 s0.5,0.22400000000000023 0.5,0.5 v1 C34.62195122241974,46.56868288612366 34.39795122241974,46.79268288612366 34.12195122241974,46.79268288612366 z" id="svg_77" strokeWidth="1" opacity="1" filter="url(#f034)"/></g><g id="svg_78" class="" strokeWidth="1" opacity="1" filter="url(#f034)"><path class="st1" d="M36.12195122241974,46.79268288612366 c-0.276,0 -0.5,-0.22400000000000023 -0.5,-0.5 v-1 c0,-0.276 0.22400000000000023,-0.5 0.5,-0.5 s0.5,0.22400000000000023 0.5,0.5 v1 C36.62195122241974,46.56868288612366 36.39795122241974,46.79268288612366 36.12195122241974,46.79268288612366 z" id="svg_79" strokeWidth="1" opacity="1" filter="url(#f034)"/></g><g id="svg_80" class="" strokeWidth="1" opacity="1" filter="url(#f034)"><path class="st1" d="M38.12195122241974,46.79268288612366 c-0.276,0 -0.5,-0.22400000000000023 -0.5,-0.5 v-1 c0,-0.276 0.22400000000000023,-0.5 0.5,-0.5 s0.5,0.22400000000000023 0.5,0.5 v1 C38.62195122241974,46.56868288612366 38.39795122241974,46.79268288612366 38.12195122241974,46.79268288612366 z" id="svg_81" strokeWidth="1" opacity="1" filter="url(#f034)"/></g><g id="svg_82" class="" strokeWidth="1" opacity="1" filter="url(#f034)"><path class="st1" d="M25.12195122241974,50.79268288612366 c-0.276,0 -0.5,-0.22400000000000023 -0.5,-0.5 v-2 c0,-0.276 0.22400000000000023,-0.5 0.5,-0.5 s0.5,0.22400000000000023 0.5,0.5 v2 C25.62195122241974,50.56868288612366 25.39795122241974,50.79268288612366 25.12195122241974,50.79268288612366 z" id="svg_83" strokeWidth="1" opacity="1" filter="url(#f034)"/></g><g id="svg_84" class="" strokeWidth="1" opacity="1" filter="url(#f034)"><path class="st1" d="M27.12195122241974,50.79268288612366 c-0.276,0 -0.5,-0.22400000000000023 -0.5,-0.5 v-2 c0,-0.276 0.22400000000000023,-0.5 0.5,-0.5 s0.5,0.22400000000000023 0.5,0.5 v2 C27.62195122241974,50.56868288612366 27.39795122241974,50.79268288612366 27.12195122241974,50.79268288612366 z" id="svg_85" strokeWidth="1" opacity="1" filter="url(#f034)"/></g><g id="svg_86" class="" strokeWidth="1" opacity="1" filter="url(#f034)"><path class="st1" d="M29.12195122241974,50.79268288612366 c-0.276,0 -0.5,-0.22400000000000023 -0.5,-0.5 v-2 c0,-0.276 0.22400000000000023,-0.5 0.5,-0.5 s0.5,0.22400000000000023 0.5,0.5 v2 C29.62195122241974,50.56868288612366 29.39795122241974,50.79268288612366 29.12195122241974,50.79268288612366 z" id="svg_87" strokeWidth="1" opacity="1" filter="url(#f034)"/></g><g id="svg_88" class="" strokeWidth="1" opacity="1" filter="url(#f034)"><path class="st1" d="M31.12195122241974,50.79268288612366 c-0.276,0 -0.5,-0.22400000000000023 -0.5,-0.5 v-2 c0,-0.276 0.22400000000000023,-0.5 0.5,-0.5 s0.5,0.22400000000000023 0.5,0.5 v2 C31.62195122241974,50.56868288612366 31.39795122241974,50.79268288612366 31.12195122241974,50.79268288612366 z" id="svg_89" strokeWidth="1" opacity="1" filter="url(#f034)"/></g><g id="svg_90" class="" strokeWidth="1" opacity="1" filter="url(#f034)"><path class="st1" d="M33.12195122241974,50.79268288612366 c-0.276,0 -0.5,-0.22400000000000023 -0.5,-0.5 v-2 c0,-0.276 0.22400000000000023,-0.5 0.5,-0.5 s0.5,0.22400000000000023 0.5,0.5 v2 C33.62195122241974,50.56868288612366 33.39795122241974,50.79268288612366 33.12195122241974,50.79268288612366 z" id="svg_91" strokeWidth="1" opacity="1" filter="url(#f034)"/></g><g id="svg_92" class="" strokeWidth="1" opacity="1" filter="url(#f034)"><path class="st1" d="M35.12195122241974,50.79268288612366 c-0.276,0 -0.5,-0.22400000000000023 -0.5,-0.5 v-2 c0,-0.276 0.22400000000000023,-0.5 0.5,-0.5 s0.5,0.22400000000000023 0.5,0.5 v2 C35.62195122241974,50.56868288612366 35.39795122241974,50.79268288612366 35.12195122241974,50.79268288612366 z" id="svg_93" strokeWidth="1" opacity="1" filter="url(#f034)"/></g><g id="svg_94" class="" strokeWidth="1" opacity="1" filter="url(#f034)"><path class="st1" d="M37.12195122241974,50.79268288612366 c-0.276,0 -0.5,-0.22400000000000023 -0.5,-0.5 v-2 c0,-0.276 0.22400000000000023,-0.5 0.5,-0.5 s0.5,0.22400000000000023 0.5,0.5 v2 C37.62195122241974,50.56868288612366 37.39795122241974,50.79268288612366 37.12195122241974,50.79268288612366 z" id="svg_95" strokeWidth="1" opacity="1" filter="url(#f034)"/></g><g id="svg_96" class="" strokeWidth="1" opacity="1" filter="url(#f034)"><path class="st1" d="M39.12195122241974,50.79268288612366 c-0.276,0 -0.5,-0.22400000000000023 -0.5,-0.5 v-2 c0,-0.276 0.22400000000000023,-0.5 0.5,-0.5 s0.5,0.22400000000000023 0.5,0.5 v2 C39.62195122241974,50.56868288612366 39.39795122241974,50.79268288612366 39.12195122241974,50.79268288612366 z" id="svg_97" strokeWidth="1" opacity="1" filter="url(#f034)"/></g><g id="svg_98" class="" strokeWidth="1" opacity="1" filter="url(#f034)"><path class="st1" d="M23.300951222419737,57.79268288612366 c-0.2,0 -0.3900000000000004,-0.12200000000000008 -0.467,-0.3200000000000004 c-0.09900000000000017,-0.258 0.029000000000000033,-0.547 0.2870000000000003,-0.6460000000000008 l1.891,-0.7300000000000006 l-3.434,-3.442 c-0.19500000000000023,-0.19500000000000023 -0.19500000000000023,-0.512 0,-0.7070000000000006 c0.19500000000000023,-0.19400000000000023 0.512,-0.19500000000000023 0.7070000000000006,0.0010000000000000013 l3.976,3.985 c0.12000000000000002,0.12000000000000002 0.171,0.2920000000000003 0.136,0.457 c-0.035,0.16600000000000023 -0.15100000000000016,0.3020000000000003 -0.31000000000000033,0.3630000000000003 l-2.606,1.007 C23.421951222419743,57.781682886123654 23.35995122241974,57.79268288612366 23.300951222419737,57.79268288612366 z" id="svg_99" strokeWidth="1" opacity="1" filter="url(#f034)"/></g><g id="svg_100" class="" strokeWidth="1" opacity="1" filter="url(#f034)"><path class="st1" d="M21.22195122241974,57.79268288612366 c-0.09900000000000017,0 -0.19700000000000023,-0.029000000000000033 -0.2840000000000003,-0.08800000000000012 l-1.46,-1.007 c-0.14300000000000004,-0.09900000000000017 -0.22500000000000023,-0.265 -0.21500000000000016,-0.43800000000000033 c0.009000000000000018,-0.17400000000000004 0.10800000000000008,-0.3300000000000004 0.261,-0.4130000000000003 l7.36,-3.984 c0.24300000000000016,-0.131 0.547,-0.04200000000000005 0.6780000000000009,0.201 c0.132,0.24300000000000016 0.04100000000000004,0.546 -0.201,0.6780000000000009 l-6.644,3.597 l0.789,0.544 c0.22700000000000023,0.15700000000000017 0.2840000000000003,0.468 0.127,0.695000000000001 C21.53595122241974,57.71668288612366 21.379951222419738,57.79268288612366 21.22195122241974,57.79268288612366 z" id="svg_101" strokeWidth="1" opacity="1" filter="url(#f034)"/></g><g id="svg_102" class="" strokeWidth="1" opacity="1" filter="url(#f034)"><path class="st1" d="M40.94295122241974,57.79268288612366 c-0.06000000000000006,0 -0.12100000000000002,-0.011000000000000018 -0.18000000000000016,-0.03400000000000005 l-2.606,-1.007 c-0.15800000000000017,-0.06100000000000007 -0.274,-0.19700000000000023 -0.31000000000000033,-0.3630000000000003 c-0.035,-0.16500000000000023 0.01600000000000002,-0.33700000000000047 0.136,-0.457 l3.976,-3.985 c0.19500000000000023,-0.19600000000000023 0.512,-0.19500000000000023 0.7070000000000006,-0.0010000000000000013 c0.19500000000000023,0.19500000000000023 0.19500000000000023,0.512 0,0.7070000000000006 l-3.434,3.442 l1.891,0.7300000000000006 c0.258,0.1 0.3860000000000004,0.3890000000000004 0.2870000000000003,0.6460000000000008 C41.33295122241974,57.67068288612366 41.14295122241974,57.79268288612366 40.94295122241974,57.79268288612366 z" id="svg_103" strokeWidth="1" opacity="1" filter="url(#f034)"/></g><g id="svg_104" class="" strokeWidth="1" opacity="1" filter="url(#f034)"><path class="st1" d="M43.12195122241974,57.723682886123655 c-0.15800000000000017,0 -0.31400000000000033,-0.07600000000000008 -0.4120000000000003,-0.21600000000000016 c-0.15600000000000017,-0.22700000000000023 -0.09900000000000017,-0.539 0.128,-0.695000000000001 l0.689000000000001,-0.4750000000000003 l-6.644,-3.597 c-0.24200000000000016,-0.131 -0.33300000000000046,-0.43500000000000033 -0.201,-0.6780000000000009 c0.131,-0.24400000000000016 0.43500000000000033,-0.33200000000000046 0.6780000000000009,-0.201 l7.36,3.984 c0.15200000000000016,0.0830000000000001 0.252,0.23900000000000016 0.261,0.4130000000000003 c0.01000000000000001,0.17400000000000004 -0.07200000000000002,0.34000000000000047 -0.21500000000000016,0.43800000000000033 l-1.36,0.9380000000000006 C43.31895122241974,57.69468288612366 43.220951222419735,57.723682886123655 43.12195122241974,57.723682886123655 z" id="svg_105" strokeWidth="1" opacity="1" filter="url(#f034)"/></g><g id="svg_106" class="" strokeWidth="1" opacity="1" filter="url(#f034)"><path class="st1" d="M23.12195122241974,30.792682886123657 h-3 c-0.276,0 -0.5,-0.22400000000000023 -0.5,-0.5 v-1 c0,-1.3780000000000001 -1.121,-2.5 -2.5,-2.5 s-2.5,1.122 -2.5,2.5 v1 c0,0.276 -0.22400000000000023,0.5 -0.5,0.5 s-0.5,-0.22400000000000023 -0.5,-0.5 v-0.5 c0,-0.551 -0.4480000000000004,-1 -1,-1 s-1,0.4490000000000004 -1,1 V30.292682886123657 c0,0.276 -0.22400000000000023,0.5 -0.5,0.5 H8.121951222419739 c-0.276,0 -0.5,-0.22400000000000023 -0.5,-0.5 s0.22400000000000023,-0.5 0.5,-0.5 h2.5 c0,-1.103 0.8970000000000008,-2 2,-2 c0.44100000000000034,0 0.8510000000000006,0.14400000000000004 1.182,0.3870000000000004 C14.268951222419739,26.79368288612366 15.580951222419738,25.792682886123657 17.12195122241974,25.792682886123657 c1.9300000000000002,0 3.5,1.57 3.5,3.5 v0.5 H23.12195122241974 c0.276,0 0.5,0.22400000000000023 0.5,0.5 S23.39795122241974,30.792682886123657 23.12195122241974,30.792682886123657 z" id="svg_107" strokeWidth="1" opacity="1" filter="url(#f034)"/></g></g></g><defs><filter id="f034" xmlns:inkscape="http://www.inkscape.org/namespaces/inkscape" inkscape:label="Organic" x="0" y="0" width="1" height="1" inkscape:menu="Textures" inkscape:menu-tooltip="Bulging, knotty, slick 3D surface" color-interpolation-filters="sRGB">
            <feTurbulence numOctaves="3" baseFrequency=".037" result="result0"/>
            <feSpecularLighting specularExponent="24.3" surfaceScale="2" specularConstant="1" result="result1">
                <feDistantLight elevation="45" azimuth="225"/>
            </feSpecularLighting>
            <feDiffuseLighting in="result0" surfaceScale="3" diffuseConstant="1.21">
                <feDistantLight azimuth="225" elevation="42"/>
            </feDiffuseLighting>
            <feBlend in2="SourceGraphic" mode="multiply" result="result91"/>
            <feComposite operator="arithmetic" in="result1" k2="1" k3="1" in2="result91"/>
            <feComposite in2="SourceAlpha" operator="in" result="result2"/>
        </filter></defs></svg>